<?xml version="1.0" standalone="no"?>
<!DOCTYPE svg PUBLIC "-//W3C//DTD SVG 20010904//EN"
 "http://www.w3.org/TR/2001/REC-SVG-20010904/DTD/svg10.dtd">
<svg version="1.0" xmlns="http://www.w3.org/2000/svg"
 width="549.000000pt" height="549.000000pt" viewBox="0 0 549.000000 549.000000"
 preserveAspectRatio="xMidYMid meet">
<metadata>
Created by potrace 1.14, written by Peter Selinger 2001-2017
</metadata>
<g transform="translate(0.000000,549.000000) scale(0.100000,-0.100000)"
fill="#000000" stroke="none">
<path d="M2548 5485 c-2 -1 -34 -6 -73 -10 -119 -12 -129 -13 -170 -20 -22 -4
-71 -13 -110 -22 -38 -8 -79 -16 -90 -19 -81 -17 -323 -97 -415 -137 -150 -65
-304 -147 -410 -215 -30 -20 -63 -41 -72 -47 -23 -14 -152 -108 -158 -115 -3
-3 -32 -28 -65 -55 -58 -47 -264 -251 -315 -311 -92 -107 -207 -271 -280 -394
-43 -74 -160 -304 -160 -316 0 -3 -6 -20 -14 -37 -28 -63 -86 -228 -86 -246 0
-10 -3 -21 -7 -25 -4 -3 -8 -13 -9 -21 -1 -7 -7 -29 -13 -47 -6 -18 -12 -44
-15 -58 -2 -14 -9 -46 -15 -73 -6 -26 -14 -64 -17 -85 -4 -20 -8 -44 -9 -52
-2 -8 -6 -40 -10 -70 -4 -30 -9 -66 -12 -80 -9 -41 -11 -496 -3 -542 4 -24 11
-68 14 -98 4 -30 9 -68 12 -85 2 -16 7 -43 9 -60 2 -16 9 -50 16 -75 14 -57
18 -75 24 -101 9 -43 37 -136 60 -201 13 -36 21 -69 17 -72 -3 -3 0 -6 6 -6 7
0 12 -6 12 -14 0 -53 201 -447 286 -563 13 -17 24 -34 24 -37 0 -3 7 -14 15
-23 9 -10 52 -65 97 -123 74 -95 370 -400 388 -400 4 0 23 -14 41 -30 37 -33
229 -169 269 -191 14 -8 27 -16 30 -19 40 -40 409 -208 560 -255 30 -9 62 -19
70 -22 8 -3 20 -7 25 -8 6 -2 46 -12 90 -24 44 -11 96 -23 115 -26 19 -3 73
-12 120 -20 134 -24 211 -29 425 -29 242 0 288 4 543 49 12 2 30 6 40 9 9 3
28 7 42 10 77 13 301 85 405 129 165 70 376 180 459 240 6 4 48 33 92 65 252
177 472 398 654 657 67 95 169 266 209 350 13 28 36 75 52 105 15 30 28 57 28
60 0 7 19 60 37 100 8 20 16 42 17 50 2 8 5 20 9 25 3 6 12 30 19 55 7 25 14
50 15 55 12 43 47 174 50 190 2 11 6 31 9 45 11 51 15 76 20 110 3 19 8 51 11
70 19 117 26 508 11 635 -5 39 -11 88 -13 110 -2 22 -16 94 -29 160 -14 66
-28 133 -31 148 -3 15 -14 53 -25 85 -11 31 -23 68 -25 81 -7 36 -91 245 -137
341 -82 171 -252 441 -331 526 -6 7 -27 31 -46 55 -41 51 -244 257 -310 313
-25 22 -74 61 -110 88 -36 27 -70 52 -76 57 -6 5 -44 30 -85 56 -41 27 -86 56
-100 66 -77 52 -426 219 -458 219 -5 0 -26 8 -47 17 -22 9 -43 17 -49 19 -14
2 -154 42 -190 54 -16 5 -43 11 -60 14 -30 6 -129 24 -175 33 -26 5 -64 10
-140 19 -49 5 -476 14 -482 9z"/>
</g>
</svg>
