<svg width="21" height="21" viewBox="0 0 21 21" fill="none" xmlns="http://www.w3.org/2000/svg">
<circle cx="10.5" cy="10.5" r="10.5" fill="#F3F2F1"/>
<path d="M10.608 8.124C10.328 8.124 10.096 8.04 9.912 7.872C9.736 7.704 9.648 7.492 9.648 7.236C9.648 6.98 9.736 6.772 9.912 6.612C10.096 6.444 10.328 6.36 10.608 6.36C10.888 6.36 11.116 6.444 11.292 6.612C11.476 6.772 11.568 6.98 11.568 7.236C11.568 7.492 11.476 7.704 11.292 7.872C11.116 8.04 10.888 8.124 10.608 8.124ZM9.84 15V9.048H11.376V15H9.84Z" fill="#007054"/>
</svg>
